<svg id="Layer_1" data-name="Layer 1" xmlns="http://www.w3.org/2000/svg" viewBox="0 0 512 512"><title>reload-dollar-sign-glyph</title><path d="M232.3,412a149.52,149.52,0,0,0,23.2,1.82c72,0,135.41-52.45,146.95-125.71a149,149,0,0,0-55.72-140.71l-16.31,21a122.35,122.35,0,1,1-68.27-25.48l-23,24.09,17,16.25,36.24-38v0l16.24-17.05-17-16.23h0l-38-36.25L237.38,92.72l24.79,23.61A148.78,148.78,0,0,0,108.41,241.85C95.66,322.9,151.23,399.24,232.3,412Z" fill="none"/><path d="M270,340.88V325.6c18.12-2,35.75-13.47,35.75-35.21,0-29.53-27.46-32.92-47.52-35.38-12.83-1.53-22.63-3.33-22.63-11.08,0-10.8,15.22-12,21.77-12,9.7,0,20.08,4.58,23.61,10.4l1,1.69,20.15-9.32-1-2c-7.5-15.34-20.95-19.78-31.15-21.57V197.67H246.42v13.4c-22,3.24-35,15.43-35,32.86,0,28.43,25.81,31.31,44.65,33.43,16.78,2,24.6,6.12,24.6,13,0,13.21-18.28,14.22-23.88,14.22-12.48,0-24.5-6.22-28-14.48l-.86-2.05L206,297.38l.87,2c6.48,15.17,20.47,24.68,39.5,26.92v14.54Z" fill="none"/><path d="M256.25,512c136,0,247.23-106.08,255.49-240V240C503.48,106.07,392.26,0,256.26,0,114.88,0,.26,114.62.26,256S114.88,512,256.25,512ZM108.41,241.85A148.78,148.78,0,0,1,262.17,116.32L237.38,92.72l16.25-17.06,38,36.25h0l17,16.23-16.24,17.05v0l-36.24,38-17-16.25,23-24.09a122.21,122.21,0,1,0,68.27,25.48l16.31-21a149,149,0,0,1,55.72,140.71c-11.53,73.26-75,125.71-146.95,125.71A149.52,149.52,0,0,1,232.3,412C151.23,399.24,95.66,322.9,108.41,241.85Zm98.52,57.57-.87-2,21.89-9.28.86,2.05c3.48,8.26,15.51,14.48,28,14.48,5.6,0,23.88-1,23.88-14.22,0-6.92-7.82-11.07-24.6-13-18.84-2.12-44.65-5-44.65-33.43,0-17.43,13-29.62,35-32.86v-13.4H270v13.46c10.2,1.79,23.65,6.23,31.15,21.57l1,2L282,244.05l-1-1.69c-3.52-5.82-13.91-10.4-23.61-10.4-6.55,0-21.77,1.17-21.77,12,0,7.76,9.8,9.55,22.63,11.08,20.06,2.47,47.52,5.85,47.52,35.38,0,21.73-17.63,33.17-35.75,35.21v15.27H246.42V326.34C227.39,324.09,213.41,314.59,206.92,299.42Z" fill="#212121"/></svg>